<svg width="35" height="34" viewBox="0 0 35 34" fill="none" xmlns="http://www.w3.org/2000/svg">
<path d="M28.7872 11.8009L20.8538 3.30088C20.7175 3.15413 20.551 3.03672 20.3652 2.9562C20.1793 2.87569 19.9782 2.83385 19.7747 2.83338H9.56634C9.08181 2.82777 8.60088 2.91493 8.15103 3.08988C7.70117 3.26483 7.2912 3.52416 6.94452 3.85304C6.59784 4.18192 6.32125 4.57392 6.13053 5.00665C5.93982 5.43938 5.83872 5.90436 5.83301 6.37505V27.625C5.83872 28.0957 5.93982 28.5607 6.13053 28.9935C6.32125 29.4262 6.59784 29.8182 6.94452 30.1471C7.2912 30.4759 7.70117 30.7353 8.15103 30.9102C8.60088 31.0852 9.08181 31.1723 9.56634 31.1667H25.433C25.9175 31.1723 26.3985 31.0852 26.8483 30.9102C27.2982 30.7353 27.7081 30.4759 28.0548 30.1471C28.4015 29.8182 28.6781 29.4262 28.8688 28.9935C29.0595 28.5607 29.1606 28.0957 29.1663 27.625V12.7501C29.1654 12.399 29.0303 12.0607 28.7872 11.8009ZM20.4163 7.08338L24.4122 11.3334H21.4955C21.3428 11.3244 21.1934 11.286 21.0562 11.2204C20.9189 11.1547 20.7965 11.0632 20.696 10.9511C20.5955 10.839 20.5191 10.7086 20.4711 10.5675C20.423 10.4264 20.4044 10.2774 20.4163 10.1292V7.08338ZM25.433 28.3334H9.56634C9.4648 28.3391 9.3631 28.3253 9.26705 28.2928C9.17101 28.2603 9.08252 28.2097 9.00665 28.1439C8.93078 28.0781 8.86903 27.9984 8.82493 27.9094C8.78083 27.8203 8.75526 27.7237 8.74967 27.625V6.37505C8.75526 6.2764 8.78083 6.17978 8.82493 6.09075C8.86903 6.00172 8.93078 5.92201 9.00665 5.85621C9.08252 5.7904 9.17101 5.73979 9.26705 5.70728C9.3631 5.67476 9.4648 5.66098 9.56634 5.66672H17.4997V10.1292C17.4761 11.1728 17.8785 12.183 18.6189 12.9394C19.3593 13.6958 20.3777 14.137 21.4518 14.1667H26.2497V27.625C26.2441 27.7237 26.2185 27.8203 26.1744 27.9094C26.1303 27.9984 26.0686 28.0781 25.9927 28.1439C25.9168 28.2097 25.8283 28.2603 25.7323 28.2928C25.6363 28.3253 25.5345 28.3391 25.433 28.3334Z" fill="white"/>
<path d="M20.4167 18.4167H18.9583V17C18.9583 16.6243 18.8047 16.264 18.5312 15.9983C18.2577 15.7326 17.8868 15.5834 17.5 15.5834C17.1132 15.5834 16.7423 15.7326 16.4688 15.9983C16.1953 16.264 16.0417 16.6243 16.0417 17V18.4167H14.5833C14.1966 18.4167 13.8256 18.566 13.5521 18.8316C13.2786 19.0973 13.125 19.4576 13.125 19.8334C13.125 20.2091 13.2786 20.5694 13.5521 20.8351C13.8256 21.1008 14.1966 21.25 14.5833 21.25H16.0417V22.6667C16.0417 23.0424 16.1953 23.4028 16.4688 23.6684C16.7423 23.9341 17.1132 24.0834 17.5 24.0834C17.8868 24.0834 18.2577 23.9341 18.5312 23.6684C18.8047 23.4028 18.9583 23.0424 18.9583 22.6667V21.25H20.4167C20.8034 21.25 21.1744 21.1008 21.4479 20.8351C21.7214 20.5694 21.875 20.2091 21.875 19.8334C21.875 19.4576 21.7214 19.0973 21.4479 18.8316C21.1744 18.566 20.8034 18.4167 20.4167 18.4167Z" fill="white"/>
</svg>
