<svg width="30" height="35" viewBox="0 0 30 35" fill="none" xmlns="http://www.w3.org/2000/svg">
<path d="M29.5125 11.0248L19.3125 0.575048C19.1372 0.394629 18.9232 0.250287 18.6842 0.151304C18.4453 0.0523207 18.1866 0.000887887 17.925 0.00031345H4.8C4.17703 -0.00658875 3.5587 0.100561 2.98031 0.315644C2.40193 0.530728 1.87482 0.849532 1.42909 1.25385C0.983361 1.65817 0.627739 2.14008 0.382534 2.67207C0.137329 3.20406 0.0073432 3.77571 0 4.35436V30.4786C0.0073432 31.0573 0.137329 31.6289 0.382534 32.1609C0.627739 32.6929 0.983361 33.1748 1.42909 33.5792C1.87482 33.9835 2.40193 34.3023 2.98031 34.5174C3.5587 34.7324 4.17703 34.8396 4.8 34.8327H25.2C25.823 34.8396 26.4413 34.7324 27.0197 34.5174C27.5981 34.3023 28.1252 33.9835 28.5709 33.5792C29.0166 33.1748 29.3723 32.6929 29.6175 32.1609C29.8627 31.6289 29.9927 31.0573 30 30.4786V12.1916C29.9988 11.76 29.8251 11.3442 29.5125 11.0248V11.0248ZM18.75 5.22517L23.8875 10.45H20.1375C19.9411 10.439 19.7491 10.3918 19.5726 10.3111C19.3962 10.2304 19.2387 10.1179 19.1096 9.98008C18.9804 9.84227 18.8821 9.68194 18.8204 9.50846C18.7586 9.33498 18.7347 9.15181 18.75 8.96965V5.22517ZM25.2 31.3495H4.8C4.66945 31.3565 4.53869 31.3396 4.4152 31.2996C4.29172 31.2596 4.17794 31.1974 4.0804 31.1165C3.98285 31.0356 3.90346 30.9376 3.84676 30.8282C3.79006 30.7187 3.75718 30.5999 3.75 30.4786V4.35436C3.75718 4.23308 3.79006 4.1143 3.84676 4.00485C3.90346 3.89539 3.98285 3.7974 4.0804 3.71651C4.17794 3.63561 4.29172 3.57339 4.4152 3.53341C4.53869 3.49344 4.66945 3.47649 4.8 3.48355H15V8.96965C14.9697 10.2526 15.487 11.4945 16.439 12.4244C17.391 13.3544 18.7003 13.8968 20.0813 13.9333H26.25V30.4786C26.2428 30.5999 26.2099 30.7187 26.1532 30.8282C26.0965 30.9376 26.0171 31.0356 25.9196 31.1165C25.8221 31.1974 25.7083 31.2596 25.5848 31.2996C25.4613 31.3396 25.3305 31.3565 25.2 31.3495Z" fill="white"/>
<path d="M18.75 19.1585H16.875V17.4169C16.875 16.955 16.6775 16.512 16.3258 16.1854C15.9742 15.8588 15.4973 15.6753 15 15.6753C14.5027 15.6753 14.0258 15.8588 13.6742 16.1854C13.3225 16.512 13.125 16.955 13.125 17.4169V19.1585H11.25C10.7527 19.1585 10.2758 19.342 9.92418 19.6686C9.57254 19.9953 9.375 20.4382 9.375 20.9001C9.375 21.3621 9.57254 21.805 9.92418 22.1317C10.2758 22.4583 10.7527 22.6418 11.25 22.6418H13.125V24.3834C13.125 24.8453 13.3225 25.2883 13.6742 25.6149C14.0258 25.9415 14.5027 26.125 15 26.125C15.4973 26.125 15.9742 25.9415 16.3258 25.6149C16.6775 25.2883 16.875 24.8453 16.875 24.3834V22.6418H18.75C19.2473 22.6418 19.7242 22.4583 20.0758 22.1317C20.4275 21.805 20.625 21.3621 20.625 20.9001C20.625 20.4382 20.4275 19.9953 20.0758 19.6686C19.7242 19.342 19.2473 19.1585 18.75 19.1585Z" fill="white"/>
</svg>
