<svg width="35" height="34" viewBox="0 0 35 34" fill="none" xmlns="http://www.w3.org/2000/svg">
<path d="M28.7872 11.8008L20.8538 3.30076C20.7175 3.15401 20.551 3.0366 20.3652 2.95608C20.1793 2.87557 19.9782 2.83373 19.7747 2.83326H9.56634C9.08181 2.82765 8.60088 2.91481 8.15103 3.08976C7.70117 3.26471 7.2912 3.52403 6.94452 3.85291C6.59784 4.18179 6.32125 4.57379 6.13053 5.00652C5.93982 5.43925 5.83872 5.90424 5.83301 6.37493V27.6249C5.83872 28.0956 5.93982 28.5606 6.13053 28.9933C6.32125 29.4261 6.59784 29.8181 6.94452 30.1469C7.2912 30.4758 7.70117 30.7351 8.15103 30.9101C8.60088 31.0851 9.08181 31.1722 9.56634 31.1666H25.433C25.9175 31.1722 26.3985 31.0851 26.8483 30.9101C27.2982 30.7351 27.7081 30.4758 28.0548 30.1469C28.4015 29.8181 28.6781 29.4261 28.8688 28.9933C29.0595 28.5606 29.1606 28.0956 29.1663 27.6249V12.7499C29.1654 12.3988 29.0303 12.0606 28.7872 11.8008ZM20.4163 7.08326L24.4122 11.3333H21.4955C21.3428 11.3243 21.1934 11.2859 21.0562 11.2203C20.9189 11.1546 20.7965 11.0631 20.696 10.951C20.5955 10.8389 20.5191 10.7085 20.4711 10.5674C20.423 10.4263 20.4044 10.2773 20.4163 10.1291V7.08326ZM25.433 28.3333H9.56634C9.4648 28.339 9.3631 28.3252 9.26705 28.2927C9.17101 28.2602 9.08252 28.2096 9.00665 28.1438C8.93078 28.078 8.86903 27.9983 8.82493 27.9092C8.78083 27.8202 8.75526 27.7236 8.74967 27.6249V6.37493C8.75526 6.27628 8.78083 6.17966 8.82493 6.09063C8.86903 6.00159 8.93078 5.92189 9.00665 5.85609C9.08252 5.79028 9.17101 5.73967 9.26705 5.70715C9.3631 5.67464 9.4648 5.66085 9.56634 5.6666H17.4997V10.1291C17.4761 11.1726 17.8785 12.1829 18.6189 12.9393C19.3593 13.6957 20.3777 14.1369 21.4518 14.1666H26.2497V27.6249C26.2441 27.7236 26.2185 27.8202 26.1744 27.9092C26.1303 27.9983 26.0686 28.078 25.9927 28.1438C25.9168 28.2096 25.8283 28.2602 25.7323 28.2927C25.6363 28.3252 25.5345 28.339 25.433 28.3333Z" fill="black"/>
<path d="M20.4167 18.4166H18.9583V16.9999C18.9583 16.6242 18.8047 16.2639 18.5312 15.9982C18.2577 15.7325 17.8868 15.5833 17.5 15.5833C17.1132 15.5833 16.7423 15.7325 16.4688 15.9982C16.1953 16.2639 16.0417 16.6242 16.0417 16.9999V18.4166H14.5833C14.1966 18.4166 13.8256 18.5658 13.5521 18.8315C13.2786 19.0972 13.125 19.4575 13.125 19.8333C13.125 20.209 13.2786 20.5693 13.5521 20.835C13.8256 21.1007 14.1966 21.2499 14.5833 21.2499H16.0417V22.6666C16.0417 23.0423 16.1953 23.4026 16.4688 23.6683C16.7423 23.934 17.1132 24.0833 17.5 24.0833C17.8868 24.0833 18.2577 23.934 18.5312 23.6683C18.8047 23.4026 18.9583 23.0423 18.9583 22.6666V21.2499H20.4167C20.8034 21.2499 21.1744 21.1007 21.4479 20.835C21.7214 20.5693 21.875 20.209 21.875 19.8333C21.875 19.4575 21.7214 19.0972 21.4479 18.8315C21.1744 18.5658 20.8034 18.4166 20.4167 18.4166Z" fill="black"/>
</svg>
