<svg width="12" height="12" viewBox="0 0 12 12" fill="none" xmlns="http://www.w3.org/2000/svg">
<g clip-path="url(#clip0)">
<path d="M8.8062 7.75856C9.53242 6.76758 9.85769 5.53893 9.71692 4.31843C9.57616 3.09792 8.97976 1.97557 8.04702 1.17591C7.11428 0.376254 5.91401 -0.0417337 4.68632 0.00557119C3.45864 0.0528761 2.29409 0.561985 1.42565 1.43104C0.55721 2.3001 0.0489347 3.46502 0.00250834 4.69274C-0.043918 5.92046 0.374929 7.12043 1.17525 8.0526C1.97558 8.98476 3.09836 9.58037 4.31896 9.72025C5.53957 9.86014 6.76798 9.53399 7.75845 8.80706H7.7577C7.7802 8.83706 7.8042 8.86556 7.8312 8.89331L10.7187 11.7808C10.8593 11.9215 11.0501 12.0006 11.2491 12.0007C11.448 12.0008 11.6388 11.9218 11.7796 11.7812C11.9203 11.6406 11.9994 11.4498 11.9995 11.2508C11.9995 11.0519 11.9206 10.861 11.7799 10.7203L8.89245 7.83281C8.86563 7.80567 8.8368 7.7806 8.8062 7.75781V7.75856ZM8.9997 4.87556C8.9997 5.41727 8.893 5.95366 8.6857 6.45413C8.4784 6.9546 8.17455 7.40934 7.79151 7.79238C7.40847 8.17542 6.95373 8.47927 6.45327 8.68657C5.9528 8.89387 5.4164 9.00056 4.8747 9.00056C4.33299 9.00056 3.7966 8.89387 3.29613 8.68657C2.79566 8.47927 2.34092 8.17542 1.95788 7.79238C1.57484 7.40934 1.27099 6.9546 1.06369 6.45413C0.856393 5.95366 0.749697 5.41727 0.749697 4.87556C0.749697 3.78155 1.18429 2.73234 1.95788 1.95875C2.73147 1.18516 3.78068 0.750564 4.8747 0.750564C5.96871 0.750564 7.01792 1.18516 7.79151 1.95875C8.5651 2.73234 8.9997 3.78155 8.9997 4.87556V4.87556Z" fill="white"/>
</g>
<defs>
<clipPath id="clip0">
<rect width="12" height="12" fill="white"/>
</clipPath>
</defs>
</svg>
