<svg width="54" height="53" viewBox="0 0 54 53" fill="none" xmlns="http://www.w3.org/2000/svg">
<path d="M27 48.5833C29.475 48.5833 31.5 46.5958 31.5 44.1666H22.5C22.5 46.5958 24.525 48.5833 27 48.5833ZM40.5 35.3333V24.2916C40.5 17.512 36.8325 11.8366 30.375 10.3349V5.52075H23.625V10.3349C17.19 11.8366 13.5 17.4899 13.5 24.2916V35.3333L9 39.7499V41.9583H45V39.7499L40.5 35.3333ZM36 37.5416H18V24.2916C18 18.8149 21.3975 14.3541 27 14.3541C32.6025 14.3541 36 18.8149 36 24.2916V37.5416Z" fill="black"/>
</svg>
