<svg width="450" height="347" viewBox="0 0 450 347" fill="none" xmlns="http://www.w3.org/2000/svg">
<path d="M225.004 48.0488L449.891 135.218L225.004 221.828L57.2031 157.01C46.8236 165.392 39.3274 178.802 38.1741 193.889H42.2105C46.8236 193.889 50.2834 197.242 50.2834 201.712V222.387C50.2834 226.857 46.8236 230.21 42.2105 230.21H39.3274L50.2834 338.612C50.8601 343.083 47.4003 346.994 42.7872 346.994H22.605C17.9919 346.994 14.5321 343.083 14.5321 338.612L26.0648 230.21H23.1816C18.5685 230.21 14.5321 226.857 14.5321 222.387V201.712C14.5321 197.242 18.5685 193.889 23.1816 193.889H29.5246C30.6779 177.685 38.1741 163.715 48.5535 153.658L0.116211 135.218L225.004 48.0488ZM218.661 237.474L225.004 239.709L231.347 237.474L354.747 189.419L363.973 288.323C364.549 295.028 359.936 297.822 353.593 295.028L305.156 271.001C298.813 267.648 288.434 268.207 282.667 271.559L235.96 297.263C230.193 300.616 219.814 300.616 214.048 297.263L167.34 271.559C161.574 268.207 151.195 267.648 145.428 271.001L96.4142 295.028C90.0712 298.381 85.4582 295.028 86.0348 288.323L95.2609 189.419L218.661 237.474Z" fill="white"/>
</svg>
